HIERARCHY
ROOT HipCenter
{
    OFFSET 0.0 0.0 -0.0
    CHANNELS 6 Xposition Yposition Zposition Zrotation Xrotation Yrotation
    JOINT Spine
    {
        OFFSET 0.0 11.535909652709961 0.0
        CHANNELS 3 Zrotation Xrotation Yrotation
        JOINT ShoulderCenter
        {
            OFFSET 0.0 32.76346969604492 0.0
            CHANNELS 3 Zrotation Xrotation Yrotation
            JOINT LeftShoulder
            {
                OFFSET 19.210508346557617 0.0 0.0
                CHANNELS 3 Zrotation Xrotation Yrotation
                JOINT LeftElbow
                {
                    OFFSET 28.85390853881836 0.0 0.0
                    CHANNELS 3 Zrotation Xrotation Yrotation
                    JOINT LeftWrist
                    {
                        OFFSET 29.32882308959961 0.0 0.0
                        CHANNELS 3 Zrotation Xrotation Yrotation
                        JOINT LeftHand
                        {
                            OFFSET 3.7689013481140137 0.0 0.0
                            CHANNELS 3 Zrotation Xrotation Yrotation
                            End Site
                            {
                                OFFSET 1.5075607299804688 0.0 0.0
                            }
                        }
                    }
                }
            }
            JOINT RightShoulder
            {
                OFFSET -19.210508346557617 0.0 0.0
                CHANNELS 3 Zrotation Xrotation Yrotation
                JOINT RightElbow
                {
                    OFFSET -28.85390853881836 0.0 0.0
                    CHANNELS 3 Zrotation Xrotation Yrotation
                    JOINT RightWrist
                    {
                        OFFSET -29.32882308959961 0.0 0.0
                        CHANNELS 3 Zrotation Xrotation Yrotation
                        JOINT RightHand
                        {
                            OFFSET -3.7689013481140137 0.0 0.0
                            CHANNELS 3 Zrotation Xrotation Yrotation
                            End Site
                            {
                                OFFSET -1.5075607299804688 0.0 0.0
                            }
                        }
                    }
                }
            }
            End Site
            {
                OFFSET 0.0 13.105390548706055 0.0
            }
        }
    }
    JOINT LeftHip
    {
        OFFSET 13.485254287719727 0.0 0.0
        CHANNELS 3 Zrotation Xrotation Yrotation
        JOINT LeftKnee
        {
            OFFSET 0.0 -41.173683166503906 0.0
            CHANNELS 3 Zrotation Xrotation Yrotation
            JOINT LeftAnkle
            {
                OFFSET 0.0 -42.33759307861328 0.0
                CHANNELS 3 Zrotation Xrotation Yrotation
                JOINT LeftFoot
                {
                    OFFSET 0.0 -13.490705490112305 0.0
                    CHANNELS 3 Zrotation Xrotation Yrotation
                    End Site
                    {
                        OFFSET 0.0 0.0 5.396281719207764
                    }
                }
            }
        }
    }
    JOINT RightHip
    {
        OFFSET -13.485254287719727 0.0 0.0
        CHANNELS 3 Zrotation Xrotation Yrotation
        JOINT RightKnee
        {
            OFFSET 0.0 -41.173683166503906 0.0
            CHANNELS 3 Zrotation Xrotation Yrotation
            JOINT RightAnkle
            {
                OFFSET 0.0 -42.33759307861328 0.0
                CHANNELS 3 Zrotation Xrotation Yrotation
                JOINT RightFoot
                {
                    OFFSET 0.0 -13.490705490112305 0.0
                    CHANNELS 3 Zrotation Xrotation Yrotation
                    End Site
                    {
                        OFFSET 0.0 0.0 5.396281719207764
                    }
                }
            }
        }
    }
}
MOTION
Frames: 10
Frame Time: 0.03333333333333333
75.0 48.5 220.39999389648438 2.4895520271385956 -1.9901838839147252 175.4155807386178 0.6055000886276829 13.90255115662999 -0.24227840623852237 -1.0743759211716571e-07 -1.1597764274748484e-06 -6.420147953621755 104.28073194506547 31.86599371114436 -69.13342436943712 1.414697547533215e-06 1.5407177579907563e-06 78.13314272127312 -179.9999990934079 8.667851475945678 -169.51697554454367 6.3611093629270335e-15 -3.310429723537619e-32 -5.963540027744094e-16 -98.97665259468911 0.8912866372287647 67.1037837495897 2.064197178879376e-06 -2.700087020447117e-06 -82.13646006274165 4.483289911564134e-06 -73.00359072979136 -32.355543831111234 -1.5902773407317584e-15 8.827812596100317e-32 -6.3611093629270335e-15 24.85498774643489 -44.58129114276882 17.726152960182752 2.9721313765867152 61.245208342098465 -74.36012445267839 60.61590961677883 -19.930599872168866 85.51501786048217 -7.951386703658791e-16 -2.758691436281349e-33 3.9756933518293955e-16 -6.025571434176862 -47.37600272851382 -3.886013049041588 3.5642359074135532 52.24251040169427 50.47119250317403 -26.04702577662793 -11.261941664401405 -16.677136926037665 -7.951386703658791e-16 3.1805546814635168e-15 -1.987846675914698e-15
75.0 48.599998474121094 219.60000610351562 2.489551931223273 -3.480051195961298 175.38503057434178 0.28599191600113955 13.113845412911346 -0.21521186707000595 6.363305537388873e-08 -7.208093226259887e-07 -6.083611135770596 101.9290777648296 28.808806078023956 -68.5091056585167 -3.3804590909244435e-07 -5.612451624167095e-06 82.84022733459805 -179.9999973777762 22.801610169530505 -166.71918735606988 -6.3611093629270335e-15 3.975693351829395e-16 1.5902773407317584e-15 -97.92468004762674 0.8635486349754449 65.90121199118053 1.902674385638454e-06 -2.7277696342484e-06 -85.42142145971874 2.6235163210615058e-06 -80.766126992515 -28.858956543911688 -3.1805546814635168e-15 -6.361109362927033e-15 -6.361109362927033e-15 23.877778601035004 -44.11770910314814 14.617238773901361 -0.5612855846051508 55.551335633170304 -68.9872535794137 60.47930346107148 -20.934207630824464 98.65381246153507 7.951386703658792e-16 -6.3611093629270335e-15 5.963540027744094e-16 -5.093917268254369 -47.24263344731337 -2.327682365480827 4.268363378988683 47.13316730556399 46.42144000913744 -24.978674047421798 -11.946670339922724 -18.93658331963965 -3.1805546814635164e-15 0.0 0.0
74.9000015258789 48.599998474121094 218.60000610351562 2.5113623636281197 -5.008321068270633 175.37097452714318 0.1696512924114755 12.354844497164972 -0.14706199182612859 -1.4889216932549974e-07 -5.6438625526603344e-08 -5.9192910572807 100.08360538637005 27.335766286828118 -67.27612167709468 -1.158048426344388e-06 -1.4075236973172735e-06 86.43090557784201 -179.999998810307 22.615912878632663 -163.44900487978563 -6.3611093629270335e-15 1.5902773407317584e-15 8.827812596100317e-32 -97.40775271004087 0.8719230317370902 64.9635753594829 2.2983080382847634e-06 1.9912570680945475e-06 -88.54738790694101 2.125011131454348e-05 -85.70701581324563 -24.69715244325482 -6.361109362927032e-15 -6.361109362927032e-15 -3.531125038440127e-31 22.74038450042732 -43.74193815706038 13.628166622779418 -0.17297535003702466 49.74402344157813 -67.04880682933779 60.37585760141143 -22.991831639744397 110.52546624313432 8.827812596100317e-32 -6.3611093629270335e-15 1.5902773407317584e-15 -4.184130379540946 -47.72143340795696 -3.573176898974287 2.3012590544395457 42.78943947968539 45.78797264941746 -24.55832554525629 -12.49394082362491 -22.4029117960461 -3.1805546814635176e-15 -2.2069531490250793e-32 7.951386703658794e-16
74.9000015258789 48.5 217.5 2.9866661860886743 -6.440860785089866 175.7485590125289 0.5789013125925327 11.558578514703122 -0.18632489976049602 1.9343363253180876e-07 -1.93108896778144e-06 -5.970241454615396 98.75506561477567 25.493497789731975 -66.40525469289891 -1.4727702263235442e-06 -2.984625748221638e-06 89.43016601822862 -179.99999492858996 29.66472995197547 -162.77625270514693 0.0 0.0 0.0 -96.04036344932285 0.12749947990897798 64.70556427791279 -3.492490419290837e-07 -1.823629841810839e-06 -91.84228958577616 -179.99999334714727 -79.60472253839987 158.31374352181078 6.3611093629270335e-15 6.3611093629270335e-15 -6.3611093629270335e-15 21.865872784991232 -43.228236386537304 10.208888381459014 -2.2000572540689514 44.00325638185167 -61.149257459412816 60.058276236991865 -25.20747038356972 117.03785906080574 -1.3241718894150476e-31 6.3611093629270335e-15 2.3854160110976376e-15 -3.179163544031343 -47.561799692682754 -2.1615631108840465 3.368224907442597 38.077145822180476 41.68617575285682 -26.049155948198813 -13.830742651507263 -28.65879299680821 3.975693351829396e-15 -2.758691436281349e-32 -7.951386703658792e-16
74.69999694824219 48.5 216.10000610351562 2.5113637210724424 -6.499448895769565 175.24295023029853 0.18634093406021984 11.650907907198617 -0.2749757584580345 1.8047625257204494e-07 -1.4355223613299695e-06 -5.145731394386089 97.2495396511754 23.475313016584252 -65.86660960548288 1.8744427760569017e-06 6.361314519600314e-07 93.14856436507876 -179.99999797362122 28.20024408809155 -158.87954303945045 6.3611093629270335e-15 0.0 0.0 -94.54134905349132 -1.1445286215074204 65.4119862876267 1.3461955724770519e-06 -1.0985265413866415e-07 -93.96550696985912 -179.99997153779157 -85.50276100409623 162.1000372624368 -6.3611093629270335e-15 0.0 0.0 20.20468677692924 -40.960510950501025 6.8808130525711455 -3.709516538019051 38.515904968996814 -56.80553404609051 62.11441533000342 -26.395791410057736 127.0465087760776 6.3611093629270335e-15 6.3611093629270335e-15 1.590277340731758e-15 -2.3629446805474656 -46.3212632929369 -1.5885414007612404 3.191949911908347 33.94099466333428 38.047640692791624 -27.215635639888195 -15.713050561851443 -36.20546000878762 -4.969616689786745e-16 6.3611093629270335e-15 7.951386703658792e-16
74.5 48.10000228881836 214.59999084472656 2.4895530650746025 -6.934466111522256 174.93358438213306 0.33621375854905705 11.065585630397015 -0.20156775604145677 -2.6506583966728273e-07 9.591678142753206e-07 -4.758696877370356 96.18766384787912 21.968339558163052 -65.89715075482844 2.465634305499363e-06 2.5685538397741375e-06 95.99530788458299 -179.99999842796538 27.43843579606005 -155.9568653215367 6.3611093629270335e-15 -2.9817700138720468e-15 1.6552148617688094e-31 -93.63112423863386 -2.759533987016497 65.44637709248195 1.188372791122037e-06 -1.6579641187156693e-06 -97.05493330637053 -179.99999174012385 -74.03885279586311 164.9960961675946 0.0 0.0 -6.361109362927033e-15 18.688028351131727 -39.28332290529037 -0.08482267626300222 -7.041130747026716 33.92537593647001 -47.10892921637004 64.28036436105909 -28.777378801803987 129.61630505937092 6.3611093629270335e-15 0.0 0.0 -1.4192499636649083 -45.82044710991697 0.15700676658598667 4.015902493565214 31.304357848617318 34.656758070078375 -29.57163359155385 -16.507562718466353 -42.2881850422093 -7.951386703658792e-16 0.0 0.0
74.19999694824219 47.60000228881836 212.8000030517578 1.9921011888713092 -6.445684388843415 174.88328080912103 0.07178800485198701 10.626517430143211 -0.24367096595451687 2.0689247521685777e-07 4.939693665055664e-07 -4.421441608518768 95.63318991469906 19.964015321111162 -66.42287205526796 7.567379820626156e-07 4.266001913188909e-06 97.64383115331198 179.9999970043275 23.8921759300684 -154.11581472411748 6.3611093629270335e-15 0.0 0.0 -92.53605078232427 -4.291173002170982 65.89342550762416 -2.638013354815607e-07 -3.3212906324142688e-06 -98.73924362313899 -179.99999776329906 -48.68696200920452 165.92497230230225 1.7655625192200634e-31 6.3611093629270335e-15 -3.1805546814635168e-15 16.311308316988207 -37.535262516400785 -2.8293999814560244 -7.104439678237567 31.519088906579817 -43.312364079292465 66.80614361553978 -29.478695349875412 133.47092091407913 -8.827812596100317e-32 -6.3611093629270335e-15 -1.5902773407317584e-15 -1.76412483290873 -44.6089646217964 0.3625170181941 4.547996004477565 29.74704736049718 33.14732563845242 -31.463658555162915 -16.596258779221024 -47.228541451153056 7.951386703658792e-16 1.6552148617688095e-32 2.3854160110976376e-15
74.0 47.0 210.8000030517578 1.9921018175862464 -4.966753859525945 174.57184474720154 0.1726688502084512 10.995797787092629 -0.21791385330593932 -9.59252474237022e-09 7.972566472660302e-07 -3.8775460505488937 95.47615360011697 19.104962006592746 -67.02207602223069 -2.833791921888066e-06 3.595800451156457e-06 98.76200885740214 179.99999823583556 22.990670394265816 -152.5294233868552 -6.361109362927032e-15 -9.939233379573487e-17 -5.517382872562698e-33 -92.17752450910997 -4.27536534289945 66.65291975614738 5.342586426444741e-08 3.322325987099679e-06 -99.93785086187727 179.9999979833244 -37.27271643874219 164.06702707582593 0.0 0.0 3.1805546814635168e-15 15.004342339279331 -34.65918778577988 -7.0914537762137195 -8.9811653576601 29.53154948703877 -38.7633965298887 68.9688484405509 -28.290164198293294 136.8624611408895 3.1805546814635176e-15 2.2069531490250793e-31 7.951386703658793e-15 -1.2610076679683673 -42.048874661317356 1.6430125250880565 5.205688703106644 28.219428845989246 30.806343690470772 -31.07611099466085 -17.387333033564214 -47.60176777204821 1.5902773407317582e-15 -2.2069531490250793e-32 -1.5902773407317582e-15
73.79999542236328 46.29999923706055 208.8000030517578 1.992063287449995 -3.481156603124497 174.20400259093603 0.131210316885396 10.840637869280526 -0.16120223819727902 1.5639511916793413e-07 -1.9413368211413877e-07 -3.4828758191054723 95.58215137642304 18.878818615945185 -68.0327204447308 1.2178274846513202e-06 1.9348796322464537e-06 99.35731157082452 -179.99999919512865 25.177551248130698 -151.07045940400346 0.0 1.9878466759146977e-16 0.0 -91.91020214475529 -4.113512295002421 67.53687404141161 -4.191672870940852e-06 -1.8319438874286853e-06 -101.01144870080344 179.99999885585518 -27.050544331008616 159.9904035569139 -1.2722218725854067e-14 3.531125038440127e-31 -3.1805546814635168e-15 13.613200342936535 -31.712151967755585 -11.982582587676502 -11.000231273629373 27.954840074024784 -33.71423425595693 70.32588933535118 -27.808357847662446 137.04114552446183 0.0 0.0 -3.1805546814635168e-15 -0.9345861615050267 -39.5080264631132 3.8872457964341525 6.172339855232143 27.68584572749963 29.669993316499387 -32.989459113425696 -16.452821284774746 -49.327528613852685 7.951386703658791e-16 5.517382872562698e-33 7.951386703658791e-16
73.5 45.29999923706055 206.60000610351562 1.4943483287579227 -0.9960695732822822 173.5041682435927 -0.18871725459477087 11.450513363882704 -0.39798635902289925 2.254760928965515e-07 2.028352053956056e-07 -1.7672932540344009 95.7073787179082 18.538751573006824 -68.50397731936317 -2.632230661722676e-06 7.983142324024526e-07 98.4712443737926 -179.99999757265974 25.228476662525104 -152.20868114263084 2.2069531490250793e-32 -1.5902773407317584e-15 1.5902773407317584e-15 -91.86027286181012 -3.1669828013442447 67.81049511720934 8.298490147769039e-07 5.4075066745280935e-06 -100.28616573120813 -179.99999419201885 -15.838488244005427 160.75382636491946 0.0 0.0 -1.5902773407317588e-15 12.12519091017118 -27.852084451999144 -17.770898377191926 -13.999454169085638 26.58067864467678 -29.605949928413843 71.38189104938942 -25.651628471738793 138.43174795649858 3.1805546814635164e-15 6.3611093629270335e-15 4.770832022195275e-15 -0.5788795313096265 -35.59277109864651 8.003534409803272 7.196968053598815 27.392977342809765 26.57658792685957 -35.01276598319408 -16.642418951474177 -48.578492451649026 3.1805546814635168e-15 0.0 0.0
